<svg xmlns="http://www.w3.org/2000/svg" xmlns:xlink="http://www.w3.org/1999/xlink" fill="none" version="1.1" viewBox="0 0 24 24"><defs><linearGradient x1="0.5" y1="0" x2="0.13735039807552996" y2="1.0250819846941692" id="master_svg0_118_7251"><stop offset="0%" stop-color="#33AFFF" stop-opacity="1"/><stop offset="100%" stop-color="#1777FF" stop-opacity="1"/></linearGradient></defs><g><g><path d="M13.6246,2.35826999L18.6246,4.6676199C19.286549,4.973353400000001,19.840641,5.4515951000000005,20.246723,6.0381198L11.9999151,10.16152L3.75325328,6.0381846C4.159349,5.4516304,4.7134701,4.9733646,5.3754499,4.6676199L10.375440099999999,2.3582710000000002C11.4097099,1.880577,12.5902901,1.880576,13.6246,2.35826999ZM3.13240837,7.4048114C3.045646608,7.7462115,3,8.1024132,3,8.4661698L3,15.5338C3,17.1766,3.93093598,18.665199,5.3754499,19.332399L10.3754501,21.641701C10.658007600000001,21.772207,10.951486599999999,21.86706,11.2499199,21.926258L11.2499199,11.4635668L3.13240837,7.4048114ZM12.7499199,21.926294C13.048422,21.867098,13.341972,21.772234,13.6246,21.641701L18.6246,19.332399C20.069099,18.665199,21,17.1766,21,15.5338L21,8.4661698C21,8.1023855,20.954348,7.7461576,20.867577,7.4047337L12.7499199,11.463562L12.7499199,21.926294Z" fill-rule="evenodd" fill="url(#master_svg0_118_7251)" fill-opacity="1"/></g></g></svg>