<svg xmlns="http://www.w3.org/2000/svg" xmlns:xlink="http://www.w3.org/1999/xlink" fill="none" version="1.1" viewBox="0 0 24 24"><defs><linearGradient x1="0.5" y1="0" x2="0.2267073575366339" y2="1.042029953574398" id="master_svg0_118_7251"><stop offset="0%" stop-color="#33AFFF" stop-opacity="1"/><stop offset="100%" stop-color="#1777FF" stop-opacity="1"/></linearGradient></defs><g><g><g><path d="M16,7C16,9.209139799999999,14.2091398,11,12,11C9.790860200000001,11,8,9.209139799999999,8,7C8,4.7908601,9.790860200000001,3,12,3C14.2091398,3,16,4.7908601,16,7C16,7,16,7,16,7ZM19,17C19,19.209141,15.866,21,12,21C8.1340101,21,5,19.209141,5,17C5,14.79086,8.1340101,13,12,13C15.866,13,19,14.79086,19,17C19,17,19,17,19,17Z" fill="url(#master_svg0_118_7251)" fill-opacity="1"/></g></g></g></svg>