<svg xmlns="http://www.w3.org/2000/svg" xmlns:xlink="http://www.w3.org/1999/xlink" fill="none" version="1.1" viewBox="0 0 24 24"><g><g><path d="M4.335409968017578,6.329179957017578C3.9649262380175783,6.143937958017578,3.514421968017578,6.294105958017578,3.329179957017578,6.664589968017578C3.143937958017578,7.035073638017578,3.294105958017578,7.485577968017578,3.664589968017578,7.670819968017578L11.664589868017577,11.670819768017578C11.875740068017578,11.776390068017578,12.124259968017578,11.776390068017578,12.335410168017578,11.670819768017578L20.33539996801758,7.670819968017578C20.70589996801758,7.485577968017578,20.856099968017578,7.035073638017578,20.67079896801758,6.664589968017578C20.485599968017578,6.294105958017578,20.03509896801758,6.143937958017578,19.66459996801758,6.329179957017578L11.999999968017578,10.161474968017579L4.335409968017578,6.329179957017578Z" fill-rule="evenodd" fill="#666666" fill-opacity="1"/></g><g><path d="M13.939,1.677386011581421C12.70525,1.107537011581421,11.2947502,1.1075380115814208,10.060969799999999,1.677387001581421L5.0609701000000005,3.986730061581421C3.3400350000000003,4.781579961581421,2.25,6.543180261581421,2.25,8.46617006158142L2.25,15.53379976158142C2.25,17.456799761581422,3.3400369999999997,19.21840076158142,5.0609701000000005,20.013299761581422L10.060969799999999,22.32259876158142C11.2947502,22.89249976158142,12.70525,22.89249976158142,13.939,22.32259876158142L18.938999,20.013299761581422C20.66,19.21840076158142,21.75,17.456799761581422,21.75,15.53379976158142L21.75,8.46617006158142C21.75,6.543180261581421,20.66,4.781579961581421,18.938999,3.986730061581421L13.939,1.677386011581421ZM20.25,8.46617006158142C20.25,7.1036999615814205,19.478201,5.888009761581421,18.310101,5.348500061581421L13.3101,3.039149961581421C12.47534,2.653614961581421,11.5246601,2.653614961581421,10.6899204,3.039149961581421L5.68993,5.348500061581421C4.5218301,5.888009761581421,3.75,7.1036999615814205,3.75,8.46617006158142L3.75,15.53379976158142C3.75,16.89629976158142,4.5218401,18.11199976158142,5.68993,18.65150076158142L10.68993,20.96079976158142C11.5246601,21.346398761581423,12.47534,21.346398761581423,13.3101,20.96079976158142L18.310101,18.65150076158142C19.478201,18.11199976158142,20.25,16.89629976158142,20.25,15.53379976158142L20.25,8.46617006158142Z" fill-rule="evenodd" fill="#666666" fill-opacity="1"/></g><g><path d="M12.75,11C12.75,10.58578601,12.414214,10.25,12,10.25C11.58578601,10.25,11.25,10.58578601,11.25,11L11.25,22C11.25,22.4142,11.58578601,22.75,12,22.75C12.414214,22.75,12.75,22.4142,12.75,22L12.75,11Z" fill-rule="evenodd" fill="#666666" fill-opacity="1"/></g></g></svg>