<svg xmlns="http://www.w3.org/2000/svg" xmlns:xlink="http://www.w3.org/1999/xlink" fill="none" version="1.1" viewBox="0 0 24 24"><defs><linearGradient x1="0.5" y1="0" x2="0.5" y2="1" id="master_svg0_118_9489"><stop offset="0%" stop-color="#33AFFF" stop-opacity="1"/><stop offset="100%" stop-color="#1777FF" stop-opacity="1"/></linearGradient></defs><g><g><path d="M18.75561928125,3.8991987710015867C16.640690281250002,3.155740741001587,14.23030128125,3.659765005001587,12.58603628125,5.304029661001587C10.86349488125,7.026571561001587,10.41994958125,9.543778661001587,11.25539828125,11.675564961001587L6.44715118125,16.48381226100159Q6.36460688125,16.566357261001585,6.29055118125,16.656594261001587Q6.21649548125,16.746832261001586,6.15164038125,16.843893261001586Q6.08678628125,16.940955261001587,6.03175788125,17.043906261001588Q5.97672938125,17.146857261001585,5.93205638125,17.254705261001586Q5.88738398125,17.36255526100159,5.85349748125,17.47426326100159Q5.81961108125,17.585972261001587,5.79683688125,17.700462261001586Q5.77406308125,17.814955261001586,5.76262138125,17.93112826100159Q5.75117968125,18.047301261001586,5.75117918125,18.164036261001588Q5.75117968125,18.280771261001586,5.76262138125,18.396944261001586Q5.77406308125,18.51311726100159,5.79683688125,18.627607261001586Q5.81961108125,18.742101261001586,5.85349748125,18.853809261001587Q5.88738398125,18.965518261001588,5.93205638125,19.07336626100159Q5.97672938125,19.181215261001586,6.03175738125,19.284167261001585Q6.08678628125,19.387117261001585,6.15163998125,19.484179261001586Q6.21649508125,19.581242261001588,6.29055118125,19.671480261001587Q6.36460688125,19.761717261001586,6.44715118125,19.844261261001588Q6.52969548125,19.926805261001586,6.61993268125,20.000860261001588Q6.71016978125,20.074917261001588,6.80723138125,20.139770261001587Q6.90429358125,20.204626261001586,7.00724458125,20.25965326100159Q7.11019568125,20.314682261001586,7.21804428125,20.359354261001588Q7.32589338125,20.40402826100159,7.43760208125,20.437914261001588Q7.54931068125,20.471800261001587,7.66380218125,20.49457426100159Q7.77829458125,20.517347261001586,7.89446738125,20.528791261001587Q8.01064108125,20.540232261001588,8.12737558125,20.540232261001588Q8.24411108125,20.540232261001588,8.36028388125,20.528791261001587Q8.47645668125,20.517347261001586,8.59094808125,20.49457426100159Q8.705440481250001,20.471800261001587,8.817149181249999,20.437914261001588Q8.92885728125,20.40402826100159,9.03670598125,20.359354261001588Q9.14455558125,20.314682261001586,9.24750708125,20.25965326100159Q9.35045818125,20.204626261001586,9.44751928125,20.139770261001587Q9.54458238125,20.074917261001588,9.63481898125,20.000860261001588Q9.72505668125,19.926805261001586,9.80759998125,19.844261261001588L14.61594628125,15.035915261001588C16.74766328125,15.871195261001587,19.26470328125,15.427607261001587,20.98715928125,13.705152261001587C22.63142428125,12.060886661001588,23.13544828125,9.650497661001587,22.39198828125,7.535568961001587C22.14271128125,6.826441561001587,21.24498728125,6.726425861001587,20.71347828125,7.2579343610015865L18.88687928125,9.084534861001586C18.65488828125,9.316525661001588,18.27875728125,9.316525661001588,18.04676628125,9.084534861001586L17.20665328125,8.244422661001586C16.974662281249998,8.012431861001588,16.974662281249998,7.636301261001587,17.20665328125,7.404310461001587L19.03325428125,5.577709961001586C19.56476228125,5.0462012610015865,19.46474828125,4.148477311001587,18.75561928125,3.8991987710015867ZM5.46530058125,3.7732870610015867Q5.39509008125,3.7732870610015867,5.32622818125,3.7869844410015867Q5.25736668125,3.8006818110015868,5.19250058125,3.827550201001587Q5.12763448125,3.854418571001587,5.06925678125,3.893425431001587Q5.01087908125,3.9324322910015868,4.961232681249999,3.982078581001587Q4.91158628125,4.031724871001587,4.8725793812500005,4.090102731001587Q4.833572381250001,4.1484805910015865,4.80670408125,4.213346601001587Q4.77983568125,4.278212671001587,4.76613858125,4.347074031001587Q4.75244118125,4.415935461001587,4.75244138125,4.486145971001587Q4.75244118125,4.556356431001587,4.76613828125,4.625217761001587Q4.77983568125,4.694079161001587,4.80670408125,4.758945261001587Q4.833572381250001,4.823811161001587,4.8725793812500005,4.882189061001587Q4.91158628125,4.940567061001587,4.961232681249999,4.990213261001587Q5.01087908125,5.039859561001586,5.06925678125,5.078866361001587Q5.12763448125,5.117873161001587,5.19250058125,5.144741661001587Q5.25736668125,5.171609961001587,5.32622818125,5.185307461001587Q5.39509008125,5.199004861001587,5.46530058125,5.199004861001587L9.98007298125,5.199004861001587Q10.05028348125,5.199004861001587,10.11914448125,5.185307361001587Q10.18800548125,5.171609961001587,10.25287148125,5.144741661001587Q10.31773758125,5.117873161001587,10.37611578125,5.078866461001587Q10.43449398125,5.039859661001587,10.48414038125,4.990213361001587Q10.53378678125,4.940567061001587,10.57279298125,4.882189161001587Q10.61179928125,4.823811261001587,10.63866808125,4.758945261001587Q10.66553688125,4.694079161001587,10.67923358125,4.625217761001587Q10.69293208125,4.556356431001587,10.69293208125,4.486145971001587Q10.69293208125,4.415935461001587,10.67923358125,4.347074031001587Q10.66553688125,4.278212671001587,10.63866808125,4.213346601001587Q10.61179928125,4.1484805910015865,10.57279298125,4.090102731001587Q10.53378678125,4.031724871001587,10.48414038125,3.982078581001587Q10.43449398125,3.9324322910015868,10.37611578125,3.893425431001587Q10.31773758125,3.854418571001587,10.25287148125,3.827550201001587Q10.18800548125,3.8006818110015868,10.11914448125,3.7869844310015868Q10.05028348125,3.7732870610015867,9.98007298125,3.7732870610015867L5.46530058125,3.7732870610015867ZM3.0888354812500003,9.713716761001587Q3.01862498125,9.713716761001587,2.94976358125,9.727413861001587Q2.88090208125,9.741111061001586,2.81603608125,9.767979861001587Q2.7511700812499997,9.794848161001587,2.6927921812499998,9.833855361001586Q2.6344142812499998,9.872862061001587,2.58476808125,9.922508461001588Q2.5351216812499997,9.972154361001586,2.49611488125,10.030532161001588Q2.45710798125,10.088909861001586,2.43023968125,10.153775961001587Q2.40337138125,10.218641961001588,2.38967398125,10.287503461001588Q2.3759765812499998,10.356365461001587,2.3759765812499998,10.426575861001588Q2.3759765812499998,10.496786361001586,2.38967398125,10.565647361001588Q2.40337118125,10.634508361001586,2.43023958125,10.699374461001586Q2.45710798125,10.764240461001588,2.49611488125,10.822617761001588Q2.5351216812499997,10.880995961001588,2.58476808125,10.930642361001587Q2.6344142812499998,10.980288261001586,2.6927921812499998,11.019294961001588Q2.75116988125,11.058301661001586,2.8160359812499998,11.085170061001588Q2.88090208125,11.112038861001587,2.94976358125,11.125736961001586Q3.01862498125,11.139434061001587,3.0888354812500003,11.139434561001586L7.60360818125,11.139434561001586Q7.67381858125,11.139434061001587,7.74267958125,11.125736961001586Q7.81154108125,11.112038861001587,7.87640718125,11.085170461001587Q7.94127278125,11.058302161001587,7.99965098125,11.019294961001588Q8.05802868125,10.980288261001586,8.107675081250001,10.930642361001587Q8.157321481250001,10.880995961001588,8.19632818125,10.822617761001588Q8.235334881250001,10.764240461001588,8.262203181250001,10.699374461001586Q8.28907208125,10.634508361001586,8.30276968125,10.565647361001588Q8.316467281249999,10.496786361001586,8.316467281249999,10.426575861001588Q8.316467281249999,10.356365461001587,8.30276968125,10.287503961001587Q8.28907208125,10.218641961001588,8.26220368125,10.153775961001587Q8.23533538125,10.088909861001586,8.19632818125,10.030532161001588Q8.157321481250001,9.972154361001586,8.107675081250001,9.922508461001588Q8.05802868125,9.872862061001587,7.99965098125,9.833854961001588Q7.94127278125,9.794848161001587,7.87640668125,9.767979861001587Q7.81154058125,9.741111061001586,7.74267958125,9.727413861001587Q7.67381858125,9.713716761001587,7.60360818125,9.713716761001587L3.0888354812500003,9.713716761001587ZM1.90084720125,15.654268261001587Q1.8306366812500001,15.654268261001587,1.76177525125,15.667966261001586Q1.69291389125,15.681663261001587,1.62804785125,15.708531261001587Q1.56318182125,15.735400261001587,1.50480395125,15.774406261001587Q1.44642609125,15.813414261001586,1.3967798012500001,15.863060261001587Q1.34713350125,15.912705261001587,1.30812665125,15.971084261001588Q1.26911980625,16.029461261001586,1.24225142625,16.094327261001588Q1.21538304325,16.159193261001587,1.20168566225,16.228056261001587Q1.18798828125,16.29691726100159,1.18798828125,16.367127261001585Q1.18798828125,16.437338261001585,1.20168566225,16.506199261001587Q1.21538304325,16.57506026100159,1.24225142625,16.639926261001587Q1.26911980625,16.704792261001586,1.30812666125,16.763170261001587Q1.34713350125,16.82154826100159,1.3967798012500001,16.87119526100159Q1.44642609125,16.920841261001588,1.50480395125,16.959847261001585Q1.56318182125,16.998854261001586,1.62804782125,17.025722261001587Q1.69291389125,17.052591261001588,1.76177525125,17.066289261001586Q1.8306366812500001,17.079987261001587,1.90084720125,17.079987261001587L4.03942398125,17.079987261001587Q4.10963418125,17.079987261001587,4.17849538125,17.06628826100159Q4.24735688125,17.052591261001588,4.312222981250001,17.025722261001587Q4.37708878125,16.998854261001586,4.43546648125,16.959846261001587Q4.49384448125,16.920841261001588,4.5434908812499994,16.87119526100159Q4.59313698125,16.82154826100159,4.63214398125,16.763170261001587Q4.671150681249999,16.704792261001586,4.69801928125,16.639926261001587Q4.72488788125,16.57506026100159,4.73858528125,16.506199261001587Q4.75228258125,16.437338261001585,4.75228288125,16.367127261001585Q4.75228258125,16.29691726100159,4.73858528125,16.228056261001587Q4.72488788125,16.159193261001587,4.69801898125,16.094326261001587Q4.671150681249999,16.029461261001586,4.63214398125,15.971083261001587Q4.59313698125,15.912704261001586,4.5434908812499994,15.863059261001586Q4.49384448125,15.813413261001587,4.43546648125,15.774406261001587Q4.37708858125,15.735399261001588,4.312222681250001,15.708531261001587Q4.24735688125,15.681663261001587,4.17849538125,15.667966261001586Q4.10963418125,15.654268261001587,4.03942398125,15.654268261001587L1.90084720125,15.654268261001587Z" fill-rule="evenodd" fill="url(#master_svg0_118_9489)" fill-opacity="1" style="mix-blend-mode:passthrough"/></g></g></svg>