<svg xmlns="http://www.w3.org/2000/svg" xmlns:xlink="http://www.w3.org/1999/xlink" fill="none" version="1.1" viewBox="0 0 24 24"><defs><linearGradient x1="0.5" y1="0" x2="0.2780132398567872" y2="1.044943740994478" id="master_svg0_118_7251"><stop offset="0%" stop-color="#33AFFF" stop-opacity="1"/><stop offset="100%" stop-color="#1777FF" stop-opacity="1"/></linearGradient></defs><g><g><g><path d="M16,15.788849539154052L16,16.28011053915405L12.75,16.28011053915405L12.75,11.310743839154053L14.5303307,9.530414539154052C14.8232193,9.237518339154054,14.8232193,8.762644739154052,14.5303307,8.469751839154053C14.2374401,8.176857939154052,13.7625599,8.176857939154052,13.4696693,8.469751839154053L12,9.939422139154054L10.5303297,8.469751839154053C10.237436800000001,8.176857939154052,9.762562800000001,8.176857939154052,9.4696698,8.469751839154053C9.1767769,8.762644739154052,9.1767769,9.237518339154054,9.4696698,9.530414539154052L11.25,11.310743839154053L11.25,16.28011053915405L8,16.28011053915405L8,15.788849539154052C8,15.134993539154053,7.666589999999999,14.536432539154053,7.19153,14.087249539154053C5.842013,12.811121539154053,5,11.003959139154052,5,9.000084439154053C5,5.134087839154052,8.1340101,2.0000815391540527,12,2.0000815391540527C15.866,2.0000815391540527,19,5.134087839154052,19,9.000084439154053C19,11.003959139154052,18.158,12.811121539154053,16.808500000000002,14.087249539154053C16.333399999999997,14.536432539154053,16,15.134993539154053,16,15.788849539154052ZM11.7894139,17.720110539154053L8,17.720110539154053L8,18.000113539154054C8,20.209264539154052,9.790860200000001,22.000049539154052,12,22.000049539154052C14.2091398,22.000049539154052,16,20.209264539154052,16,18.000113539154054L16,17.720110539154053L12.2105861,17.720110539154053C12.143777400000001,17.739617539154054,12.073110100000001,17.750078539154053,12,17.750078539154053C11.926889899999999,17.750078539154053,11.856222599999999,17.739617539154054,11.7894139,17.720110539154053Z" fill-rule="evenodd" fill="url(#master_svg0_118_7251)" fill-opacity="1"/></g></g></g></svg>