<svg xmlns="http://www.w3.org/2000/svg" xmlns:xlink="http://www.w3.org/1999/xlink" fill="none" version="1.1" viewBox="0 0 24 24"><g><g><path d="M4.176260026602173,4.176260026602173C4.444829926602173,3.907688926602173,4.888230126602172,3.7320670266021727,5.582220126602173,3.751431926602173C6.278380126602173,3.770858026602173,7.153720126602173,3.987903026602173,8.160199926602173,4.419250026602173C8.963925126602174,4.763707126602172,9.827943126602172,5.2347600266021725,10.719880326602173,5.8205011266021724C9.847791426602173,6.507040726602173,8.976134026602173,7.280012326602173,8.128100126602174,8.128050126602172C7.280039026602173,8.976118326602172,6.507046926602173,9.847801926602173,5.820491826602173,10.719919426602173C5.234753126602173,9.827975526602174,4.763703126602173,8.963955126602173,4.419250026602173,8.160229926602174C3.987902026602173,7.153740126602173,3.770858026602173,6.278390126602173,3.751432026602173,5.582230126602173C3.7320670266021727,4.888240126602173,3.9076900266021726,4.444829926602173,4.176260026602173,4.176260026602173ZM9.188770026602173,9.188709926602172C8.261707526602173,10.115772026602173,7.436731126602173,11.064564926602174,6.726730626602173,12.000057426602172C7.436711026602173,12.935513126602173,8.261657026602172,13.884273126602173,9.188679926602173,14.811299126602172C10.115730026602172,15.738350126602173,11.064519126602173,16.563318126602173,12.000001226602173,17.273314126602173C12.935478126602172,16.563318126602173,13.884257126602172,15.738350126602173,14.811299126602172,14.811299126602172C15.738320126602172,13.884275126602173,16.56326712660217,12.935516126602172,17.273247126602172,12.000058426602173C16.563239126602173,11.064563026602173,15.738261126602174,10.115765326602173,14.811200126602174,9.188699926602172C13.884195126602172,8.261674626602172,12.935453126602173,7.436727326602173,12.000010726602174,6.726745826602173C11.064552526602172,7.4367296266021725,10.115791526602173,8.261680326602173,9.188770026602173,9.188709926602172ZM13.280146126602173,5.8205049266021724C14.152225126602174,6.507041726602173,15.023872126602173,7.280008126602173,15.871900126602172,8.128040026602173C16.719957126602175,8.976101126602174,17.492949126602173,9.847778526602173,18.179504126602172,10.719890826602173C18.765228126602175,9.827961226602174,19.23626312660217,8.963953226602172,19.580700126602174,8.160239926602173C20.012100126602174,7.153750226602173,20.229099126602172,6.278400226602173,20.248600126602174,5.582240126602173C20.267901126602172,4.888250126602173,20.092301126602173,4.444839926602173,19.823700126602173,4.176270026602173C19.555201126602174,3.907699926602173,19.111799126602172,3.732077926602173,18.417799126602173,3.751443026602173C17.721600126602173,3.770869026602173,16.846300126602173,3.9879130266021727,15.839800126602173,4.419260026602172C15.036093126602173,4.763716026602173,14.172082126602174,5.234766726602173,13.280146126602173,5.8205049266021724ZM12.000013626602172,4.8744795266021725C10.882297726602173,4.102118126602173,9.782756126602173,3.4826849266021727,8.751079826602172,3.0405359866021726C7.641070126602173,2.5648129866021727,6.572940126602173,2.278493996602173,5.624059926602173,2.252015996702173C4.672990126602173,2.225476996602173,3.769788026602173,2.4614090066021728,3.1155980266021728,3.115602966602173C2.4614080066021726,3.769794926602173,2.225477004602173,4.673000126602172,2.2520160044021726,5.624069926602173C2.2784940046021727,6.572950126602173,2.564810986602173,7.641080126602173,3.040531816602173,8.751099826602172C3.4826814266021726,9.782786626602173,4.102118026602173,10.882331126602173,4.8744833266021725,12.000046026602172C4.1021600266021725,13.117725126602172,3.4827543266021728,14.217235126602173,3.040621996602173,15.248900126602173C2.564900996602173,16.358900126602173,2.2785840036021727,17.427000126602174,2.252106004402173,18.375900126602172C2.2255670036021726,19.327000126602172,2.4614980066021728,20.230200126602174,3.115688026602173,20.884400126602173C3.7698780266021727,21.538599126602172,4.673079926602172,21.774500126602174,5.624150026602173,21.747999126602174C6.573030226602173,21.721501126602174,7.641159726602173,21.435200126602172,8.751169926602174,20.95949912660217C9.782825726602173,20.517365126602172,10.882346426602172,19.89794612660217,12.000039326602172,19.125605126602174C13.117705126602173,19.897923126602173,14.217190126602173,20.517328126602173,15.248799126602172,20.95949912660217C16.358800126602173,21.435200126602172,17.427000126602174,21.721501126602174,18.375900126602172,21.747999126602174C19.326901126602174,21.774500126602174,20.23010112660217,21.538599126602172,20.884300126602174,20.884400126602173C21.538500126602173,20.230200126602174,21.77440112660217,19.327000126602172,21.747900126602172,18.375900126602172C21.721399126602172,17.427000126602174,21.435101126602174,16.358900126602173,20.959400126602173,15.248900126602173C20.517275126602172,14.217245126602172,19.897875126602173,13.117746126602173,19.125559126602173,12.000076526602173C19.897923126602173,10.882347326602172,20.517357126602175,9.782790426602173,20.95949912660217,8.751109826602173C21.435200126602172,7.6410901266021725,21.721501126602174,6.572960126602172,21.747999126602174,5.624079926602173C21.774500126602174,4.673010126602173,21.538599126602172,3.769806026602173,20.884400126602173,3.115612986602173C20.230200126602174,2.461419996602173,19.327000126602172,2.225487995602173,18.375900126602172,2.252025996602173C17.427100126602173,2.2785049976021727,16.358900126602173,2.564823986602173,15.248900126602173,3.040546596602173C14.217252126602173,3.482693426602173,13.117722126602173,4.102122926602172,12.000013626602172,4.8744795266021725ZM4.176350026602173,19.823700126602173C4.444920026602173,20.092301126602173,4.888319926602173,20.267901126602172,5.582309926602173,20.248600126602174C6.278469826602173,20.229099126602172,7.153809826602173,20.012100126602174,8.160290026602173,19.580700126602174C8.963981826602172,19.23627312660217,9.827960226602173,18.765253126602172,10.719858426602173,18.17955112660217C9.847747126602172,17.492993126602173,8.976066826602173,16.719993126602173,8.128010026602173,15.871900126602172C7.2799947266021725,15.023881126602173,6.5070402266021725,14.152248126602172,5.820512326602173,13.280182126602172C5.234806026602173,14.172089126602172,4.763779426602173,15.036083126602174,4.419339926602173,15.839800126602173C3.987992026602173,16.846300126602173,3.7709480266021727,17.721600126602173,3.751521926602173,18.417799126602173C3.732157026602173,19.111799126602172,3.9077800266021727,19.555201126602174,4.176350026602173,19.823700126602173ZM14.750000126602172,12.000000226602173C14.750000126602172,10.481219526602173,13.518800126602173,9.249999726602173,12.000000226602173,9.249999726602173C10.481219526602173,9.249999726602173,9.250000226602172,10.481219526602173,9.250000226602172,12.000000226602173C9.250000226602172,13.518800126602173,10.481219526602173,14.750000126602172,12.000000226602173,14.750000126602172C13.518800126602173,14.750000126602172,14.750000126602172,13.518800126602173,14.750000126602172,12.000000226602173ZM12.000000226602173,10.750000226602173C11.309640126602172,10.750000226602173,10.750000226602173,11.309640126602172,10.750000226602173,12.000000226602173C10.750000226602173,12.690360126602172,11.309640126602172,13.250000126602172,12.000000226602173,13.250000126602172C12.690360126602172,13.250000126602172,13.250000126602172,12.690360126602172,13.250000126602172,12.000000226602173C13.250000126602172,11.309640126602172,12.690360126602172,10.750000226602173,12.000000226602173,10.750000226602173ZM13.280189126602172,18.179575126602174C14.152288126602173,17.493027126602172,15.023955126602173,16.72004612660217,15.872000126602172,15.872000126602172C16.720021126602173,15.023978126602174,17.492983126602173,14.152331126602173,18.179516126602174,13.280249126602174C18.765213126602173,14.172133126602173,19.23624212660217,15.036104126602172,19.580700126602174,15.839800126602173C20.011999126602174,16.846200126602174,20.229099126602172,17.721600126602173,20.248499126602173,18.417799126602173C20.267799126602174,19.111700126602173,20.09219912660217,19.555201126602174,19.823700126602173,19.823700126602173C19.555100126602174,20.092301126602173,19.111700126602173,20.267901126602172,18.417700126602174,20.248600126602174C17.721500126602173,20.229099126602172,16.846200126602174,20.012100126602174,15.839700126602173,19.580700126602174C15.036036126602173,19.23627712660217,14.172073126602173,18.765267126602172,13.280189126602172,18.179575126602174Z" fill-rule="evenodd" fill="#666666" fill-opacity="1"/></g></g></svg>