<svg xmlns="http://www.w3.org/2000/svg" xmlns:xlink="http://www.w3.org/1999/xlink" fill="none" version="1.1" viewBox="0 0 24 24"><g><g><path d="M12.58635228125,5.303908589517212C14.23061728125,3.659643888517212,16.64100528125,3.155619619517212,18.75593528125,3.8990774195172118C19.46506328125,4.148356199517212,19.56507828125,5.046080089517212,19.03356928125,5.577588789517212L17.20697028125,7.404189389517212C16.97497828125,7.636180189517212,16.97497828125,8.012310789517212,17.20696828125,8.244301089517212L18.04708128125,9.084413789517212C18.27907228125,9.316404589517212,18.65520328125,9.316404589517212,18.88719328125,9.084413789517212L20.71379428125,7.257813189517211C21.24530228125,6.7263047895172114,22.14302628125,6.826320389517212,22.39230528125,7.535447789517212C23.13576328125,9.650376589517212,22.63173828125,12.060766489517212,20.98747428125,13.705030989517212C19.26475128125,15.427752989517211,16.74719828125,15.871209989517212,14.61526828125,15.035404989517211L9.80670738125,19.84396798951721Q9.72416308125,19.926511989517213,9.63392548125,20.000568989517213Q9.54368778125,20.074622989517213,9.44662568125,20.139476989517213Q9.34956458125,20.204332989517212,9.24661348125,20.25935998951721Q9.14366248125,20.314388989517212,9.03581288125,20.35906098951721Q8.927964181250001,20.40373398951721,8.816255581250001,20.437619989517213Q8.70454688125,20.471505989517212,8.59005448125,20.494279989517214Q8.47556308125,20.517053989517212,8.35939028125,20.528497989517213Q8.24321748125,20.539937989517213,8.12648198125,20.539937989517213Q8.00974698125,20.539937989517213,7.89357378125,20.528497989517213Q7.77740098125,20.517053989517212,7.66290858125,20.494279989517214Q7.54841708125,20.471505989517212,7.43670888125,20.437619989517213Q7.32500028125,20.40373398951721,7.21715068125,20.35906098951721Q7.10930208125,20.314388989517212,7.00635098125,20.25935998951721Q6.90339998125,20.204332989517212,6.80633828125,20.139476989517213Q6.70927718125,20.074622989517213,6.61903998125,20.00056698951721Q6.52880288125,19.926511989517213,6.44625858125,19.84396798951721Q6.36371468125,19.76142298951721,6.28965858125,19.671186989517214Q6.21560288125,19.580947989517213,6.15074778125,19.483885989517212Q6.08589358125,19.386825989517213,6.03086518125,19.283874989517212Q5.97583678125,19.18092398951721,5.93116378125,19.073073989517212Q5.88649178125,18.96522498951721,5.85260488125,18.85351698951721Q5.81871848125,18.741807989517213,5.79594418125,18.627315989517214Q5.77317048125,18.512824989517213,5.76172828125,18.39665198951721Q5.75028658125,18.280478989517214,5.75028658125,18.16374298951721Q5.75028658125,18.04700898951721,5.76172878125,17.930835989517213Q5.77317048125,17.81466298951721,5.79594418125,17.700169989517214Q5.81871848125,17.58567798951721,5.85260488125,17.473970989517213Q5.88649178125,17.36226098951721,5.93116378125,17.254411989517212Q5.97583678125,17.146562989517214,6.03086518125,17.04361198951721Q6.08589358125,16.940660989517212,6.15074778125,16.843597989517214Q6.21560288125,16.74653698951721,6.28965858125,16.656300989517213Q6.36371468125,16.566062989517214,6.44625858125,16.48351898951721L11.25532528125,11.674452089517212C10.42040248125,9.542877389517212,10.86407848125,7.026182889517212,12.58635228125,5.303908589517212ZM5.46530058125,3.773195509517212Q5.39509008125,3.773195509517212,5.32622818125,3.786892879517212Q5.25736668125,3.800590259517212,5.19250058125,3.827458649517212Q5.12763448125,3.854327019517212,5.06925678125,3.893333879517212Q5.01087908125,3.932340739517212,4.961232681249999,3.981987029517212Q4.91158628125,4.031633319517212,4.8725793812500005,4.090011119517212Q4.833572381250001,4.148388979517212,4.80670408125,4.213255049517212Q4.77983568125,4.278121049517212,4.76613858125,4.346982479517212Q4.75244118125,4.415843899517212,4.75244138125,4.486054419517212Q4.75244118125,4.556264879517212,4.76613828125,4.625126289517212Q4.77983568125,4.693987589517212,4.80670408125,4.758853589517212Q4.833572381250001,4.823719489517212,4.8725793812500005,4.8820974895172125Q4.91158628125,4.940475389517212,4.961232681249999,4.990121689517212Q5.01087908125,5.039767989517212,5.06925678125,5.078774789517212Q5.12763448125,5.117781589517212,5.19250058125,5.144649989517212Q5.25736668125,5.171518289517212,5.32622818125,5.185215689517212Q5.39509008125,5.198913189517212,5.46530058125,5.198913289517212L9.98007298125,5.198913289517212Q10.05028348125,5.198913189517212,10.11914448125,5.185215789517212Q10.18800548125,5.171518289517212,10.25287148125,5.144649989517212Q10.31773758125,5.117781589517212,10.37611578125,5.078774689517212Q10.43449398125,5.039767989517212,10.48414038125,4.990121689517212Q10.53378678125,4.940475389517212,10.57279298125,4.8820974895172125Q10.61179928125,4.823719489517212,10.63866808125,4.758853589517212Q10.66553688125,4.693987589517212,10.67923358125,4.625126289517212Q10.69293208125,4.556264879517212,10.69293208125,4.486054419517212Q10.69293208125,4.415843899517212,10.67923358125,4.346982479517212Q10.66553688125,4.278121049517212,10.63866808125,4.213255049517212Q10.61179928125,4.148388979517212,10.57279298125,4.090011179517212Q10.53378678125,4.031633319517212,10.48414038125,3.981987029517212Q10.43449398125,3.932340739517212,10.37611578125,3.893333849517212Q10.31773758125,3.854327019517212,10.25287148125,3.827458649517212Q10.18800548125,3.800590259517212,10.11914448125,3.786892889517212Q10.05028348125,3.773195509517212,9.98007298125,3.773195509517212L5.46530058125,3.773195509517212ZM13.59448728125,6.312043389517212Q12.62657728125,7.279952789517212,12.36000428125,8.614884089517211Q12.09935628125,9.920133789517212,12.58284028125,11.154474489517213L12.92303828125,12.023007589517212L7.45439338125,17.49165398951721Q7.17600438125,17.77004298951721,7.17600348125,18.16374398951721Q7.17600438125,18.557441989517212,7.45439438125,18.83583298951721Q7.73278238125,19.11421998951721,8.12648198125,19.114221989517212Q8.52018358125,19.114221989517212,8.79857258125,18.83583298951721L14.26693028125,13.367474789517212L15.13564828125,13.708048989517211Q16.370182281250003,14.192037989517212,17.67584028125,13.931510989517212Q19.01117328125,13.665061989517213,19.97933928125,12.696895789517212Q20.90873728125,11.767498289517212,21.19359428125,10.487117089517213Q21.38972828125,9.605525289517212,21.24081628125,8.747060089517213L19.89532828125,10.092548589517211Q19.30375128125,10.684124189517213,18.46713828125,10.68412518951721Q17.63052328125,10.684124189517213,17.03894728125,10.092547689517211L16.19883528125,9.252435489517211Q15.60725928125,8.660859389517212,15.60725828125,7.824245689517212Q15.60725828125,6.987631089517212,16.19883428125,6.396054489517212L17.54432328125,5.050565989517212Q16.68585728125,4.901653789517212,15.80426528125,5.097788789517212Q14.52388428125,5.3826453895172115,13.59448728125,6.312043389517212ZM3.0888354812500003,9.713625189517213Q3.01862498125,9.713625189517213,2.94976358125,9.727322789517212Q2.88090208125,9.741019489517212,2.81603608125,9.76788778951721Q2.7511700812499997,9.794756189517212,2.6927921812499998,9.833763389517213Q2.6344142812499998,9.872770589517213,2.58476808125,9.922416889517212Q2.5351216812499997,9.972062789517212,2.49611488125,10.030440589517212Q2.45710798125,10.088818789517212,2.43023968125,10.153684889517212Q2.40337138125,10.218550889517212,2.38967398125,10.287411889517212Q2.3759765812499998,10.356273889517212,2.3759765812499998,10.426484389517212Q2.3759765812499998,10.496694789517212,2.38967398125,10.565555789517212Q2.40337118125,10.63441678951721,2.43023958125,10.699282889517212Q2.45710798125,10.764148989517212,2.49611488125,10.822526689517211Q2.5351216812499997,10.880904889517211,2.58476808125,10.930551289517211Q2.6344142812499998,10.980197189517213,2.6927921812499998,11.019203889517211Q2.75116988125,11.058210589517213,2.8160359812499998,11.08507898951721Q2.88090208125,11.111947289517211,2.94976358125,11.125644889517211Q3.01862498125,11.139342589517213,3.0888354812500003,11.139342989517212L7.60360818125,11.139342989517212Q7.67381858125,11.139342589517213,7.74267958125,11.125644889517211Q7.81154108125,11.111947789517213,7.87640718125,11.085079389517212Q7.94127278125,11.058211089517211,7.99965098125,11.019204389517212Q8.05802868125,10.980197689517212,8.107675081250001,10.930551789517212Q8.157321481250001,10.880905389517212,8.19632818125,10.822527189517212Q8.235334881250001,10.764148989517212,8.262203181250001,10.699282889517212Q8.28907208125,10.63441678951721,8.30276968125,10.565555789517212Q8.316467281249999,10.496694789517212,8.316467281249999,10.426484389517212Q8.316467281249999,10.356273889517212,8.30276968125,10.287411889517212Q8.28907208125,10.218550489517213,8.26220368125,10.153684389517212Q8.23533538125,10.088818289517212,8.19632818125,10.030440589517212Q8.157321481250001,9.972062789517212,8.107675081250001,9.922416889517212Q8.05802868125,9.872770589517213,7.99965098125,9.833763789517212Q7.94127278125,9.794756689517211,7.87640668125,9.767888289517213Q7.81154058125,9.741019489517212,7.74267958125,9.727322789517212Q7.67381858125,9.713625189517213,7.60360818125,9.713625189517213L3.0888354812500003,9.713625189517213ZM1.90084720125,15.654298989517212Q1.8306366812500001,15.654298989517212,1.76177525125,15.667995989517213Q1.69291389125,15.681692989517211,1.62804785125,15.708560989517212Q1.56318182125,15.735429989517211,1.50480395125,15.774435989517212Q1.44642609125,15.813442989517212,1.3967798012500001,15.863089989517212Q1.34713350125,15.912735989517213,1.30812665125,15.971112989517211Q1.26911980625,16.02949198951721,1.24225142625,16.094356989517212Q1.21538304325,16.159223989517212,1.20168566225,16.228084989517214Q1.18798828125,16.296947989517214,1.18798828125,16.36715798951721Q1.18798828125,16.43736898951721,1.20168566225,16.506229989517212Q1.21538304325,16.575090989517214,1.24225142625,16.63995698951721Q1.26911980625,16.70482298951721,1.30812666125,16.763200989517212Q1.34713350125,16.821578989517214,1.3967798012500001,16.871225989517214Q1.44642609125,16.92087198951721,1.50480395125,16.95987798951721Q1.56318182125,16.99888398951721,1.62804782125,17.025752989517212Q1.69291389125,17.052621989517213,1.76177525125,17.066318989517214Q1.8306366812500001,17.080016989517212,1.90084720125,17.080016989517212L4.03942398125,17.080016989517212Q4.10963418125,17.080016989517212,4.17849538125,17.06631998951721Q4.24735688125,17.052621989517213,4.312222981250001,17.025752989517212Q4.37708878125,16.99888398951721,4.43546648125,16.95987898951721Q4.49384448125,16.92087198951721,4.5434908812499994,16.871225989517214Q4.59313698125,16.821578989517214,4.63214398125,16.763200989517212Q4.671150681249999,16.70482298951721,4.69801928125,16.63995598951721Q4.72488788125,16.575090989517214,4.73858528125,16.506229989517212Q4.75228258125,16.43736898951721,4.75228288125,16.36715798951721Q4.75228258125,16.296947989517214,4.73858528125,16.22808598951721Q4.72488788125,16.159223989517212,4.69801898125,16.094357989517214Q4.671150681249999,16.02949198951721,4.63214398125,15.971112989517211Q4.59313698125,15.912735989517213,4.5434908812499994,15.863089989517212Q4.49384448125,15.813442989517212,4.43546648125,15.774436989517213Q4.37708858125,15.735429989517211,4.312222681250001,15.708560989517212Q4.24735688125,15.681692989517211,4.17849538125,15.667996989517212Q4.10963418125,15.654298989517212,4.03942398125,15.654298989517212L1.90084720125,15.654298989517212Z" fill-rule="evenodd" fill="#666666" fill-opacity="1"/></g></g></svg>