<svg xmlns="http://www.w3.org/2000/svg" xmlns:xlink="http://www.w3.org/1999/xlink" fill="none" version="1.1" viewBox="0 0 24 24"><g><g><path d="M16.75,7C16.75,4.3766501,14.62335,2.25,12,2.25C9.3766499,2.25,7.25,4.3766501,7.25,7C7.25,9.6233501,9.3766499,11.75,12,11.75C14.62335,11.75,16.75,9.6233501,16.75,7ZM12,3.75C10.20507,3.75,8.75,5.20507,8.75,7C8.75,8.79493,10.20507,10.25,12,10.25C13.7949305,10.25,15.25,8.79493,15.25,7C15.25,5.20507,13.7949305,3.75,12,3.75ZM7.3856599,15.6959C6.19864,16.2895,5.75,16.970599999999997,5.75,17.5C5.75,18.029400000000003,6.19864,18.710501,7.3856599,19.3041C8.5278201,19.875099,10.158189799999999,20.25,12,20.25C13.8418102,20.25,15.4722,19.875099,16.6143,19.3041C17.8014,18.710501,18.25,18.029400000000003,18.25,17.5C18.25,16.970599999999997,17.8014,16.2895,16.6143,15.6959C15.4722,15.1249,13.8418102,14.75,12,14.75C10.158189799999999,14.75,8.5278201,15.1249,7.3856599,15.6959ZM12,13.25C14.0241804,13.25,15.8938,13.6586,17.2852,14.3543C18.6316,15.0275,19.75,16.0964,19.75,17.5C19.75,18.903601,18.6316,19.9725,17.2852,20.6457C15.8938,21.3414,14.0241804,21.75,12,21.75C9.9758201,21.75,8.10618,21.3414,6.714839899999999,20.6457C5.368363,19.9725,4.25,18.903601,4.25,17.5C4.25,16.0964,5.368363,15.0275,6.714839899999999,14.3543C8.10618,13.6586,9.9758201,13.25,12,13.25Z" fill-rule="evenodd" fill="#666666" fill-opacity="1"/></g></g></svg>