<svg xmlns="http://www.w3.org/2000/svg" xmlns:xlink="http://www.w3.org/1999/xlink" fill="none" version="1.1" viewBox="0 0 24 24"><g><g><path d="M1.25,6C1.25,3.3766501,3.3766501,1.25,6,1.25L18,1.25C20.6234,1.25,22.75,3.3766501,22.75,6L22.75,18C22.75,20.6234,20.6234,22.75,18,22.75L6,22.75C3.3766501,22.75,1.25,20.6234,1.25,18L1.25,6ZM6,2.75C4.20507,2.75,2.75,4.20507,2.75,6L2.75,18C2.75,19.794901,4.20507,21.25,6,21.25L18,21.25C19.794901,21.25,21.25,19.794901,21.25,18L21.25,6C21.25,4.20507,19.794901,2.75,18,2.75L6,2.75ZM15.439347,9.75L14.5,9.75C14.0858,9.75,13.75,9.4142103,13.75,9C13.75,8.5857902,14.0858,8.25,14.5,8.25L16.381999999999998,8.25C17.044800000000002,8.25,17.650801,8.624499799999999,17.947201,9.21738L18.670799,10.6645899C18.8561,11.0350704,18.7059,11.48558,18.3354,11.67082C17.964899,11.85606,17.5144,11.70589,17.329201,11.33541L16.837813,10.3526287L14.3917,14.084C13.6857,15.1609,12.0978,15.1323,11.43102,14.0308L9.5228395,10.8784399C9.4229002,10.7133398,9.18153,10.7189302,9.089340199999999,10.8884802L6.6588898,15.3583C6.46103,15.7222,6.00562,15.8568,5.6417298,15.6589C5.2778301,15.461,5.1432400000000005,15.0056,5.3411102,14.6417L7.7715502,10.1719303C8.4168801,8.9851098,10.1064997,8.9460001,10.8060598,10.1016903L12.7142,13.2541C12.8095,13.4114,13.0363,13.4155,13.1372,13.2617L15.439347,9.75Z" fill-rule="evenodd" fill="#666666" fill-opacity="1"/></g></g></svg>